<svg xmlns="http://www.w3.org/2000/svg" xmlns:xlink="http://www.w3.org/1999/xlink" viewBox="0 0 560 653"><defs><style>.cls-1,.cls-14,.cls-20{fill:none;}.cls-2{font-size:113.76px;font-family:PermanentMarker-Regular, Permanent Marker;}.cls-13,.cls-2,.cls-21,.cls-3,.cls-6{fill:#4563ac;}.cls-15,.cls-23,.cls-4{fill:#2e354b;}.cls-4{opacity:0.22;}.cls-5{font-size:109.94px;font-family:SquareFont, SquareFont;}.cls-10,.cls-22,.cls-5{fill:#ffce00;}.cls-6{font-size:125.59px;font-family:SquareFontOutline, SquareFont Outline;}.cls-7{fill:#f6ab90;}.cls-8{fill:#4b72b6;}.cls-9{fill:#325291;}.cls-11{clip-path:url(#clip-path);}.cls-12{fill:#fff;}.cls-13{font-size:70.21px;font-family:FrederickatheGreat-Regular, Fredericka the Great;}.cls-14{stroke:#4563ac;stroke-width:4px;}.cls-14,.cls-20{stroke-miterlimit:10;stroke-dasharray:4;}.cls-16{clip-path:url(#clip-path-2);}.cls-17{clip-path:url(#clip-path-3);}.cls-18{clip-path:url(#clip-path-4);}.cls-19{fill:#699bff;}.cls-20{stroke:#dcffe3;stroke-width:2px;opacity:0.57;}.cls-21{opacity:0.23;}.cls-21,.cls-22{font-size:94.11px;font-family:OpenSans-ExtraBoldItalic, Open Sans;font-weight:700;font-style:italic;}.cls-23{font-size:73.82px;font-family:ShadowsIntoLight, Shadows Into Light;}</style><clipPath id="clip-path"><path class="cls-1" d="M494.08,232.32c-2.86-20.78-24-22.38-27-22.51-1.62-21.54-1.91-41.77,1.35-48.78,5.31-11.38-1.07-20.86-4.23-24.57a9.92,9.92,0,0,0-8.52-4.79c-20.7-1-23.3-3.87-23.3-3.87L410,131v-5.88s-14-9.71-26.87,0-85.88,16.72-107.38,17.46-29.5,13.24-34,23.74a22,22,0,0,1-14.18,12.65s8,3.1,5.5,14.1c0,0,12.89-1.76,16.68,1.75,2.73,2.53,21,13.5,42,0,13.6-8.74,38.28-25,57.19-34.18a40,40,0,0,0-8.9,21.24l-8,76.83,28,9.66,74-68.17-13.24,59.19,2.57-5.24-.44,1.16c-.69,1.33-1.4,2.7-2.13,4.08,0,0-6.74,42.89,29.25,26.9,10.31-7.52,20.43-14.44,27.44-19.32C493.7,255.62,495,240.09,494.08,232.32Z"/></clipPath><clipPath id="clip-path-2"><path class="cls-1" d="M431.83,27.89S449.08,35,453.46,49.73l2.24,1.08,4.52-1.08S453.12,29.85,432.43,25c-19.79-4.67-4.25.57-4.25.57Z"/></clipPath><clipPath id="clip-path-3"><ellipse class="cls-1" cx="375.69" cy="86.18" rx="11.71" ry="12.09"/></clipPath><clipPath id="clip-path-4"><circle class="cls-1" cx="405.09" cy="86.18" r="12.09"/></clipPath></defs><title>todoIllustration</title><g id="Calque_1" data-name="Calque 1"><text class="cls-2" transform="translate(109.46 274.42)">time</text><circle class="cls-3" cx="408.84" cy="227.95" r="12.64"/><path class="cls-3" d="M302,155.66s-53.37-34-12-75.66c29-29.19,53.41-13.42,88.17-18.56s28.15-33.34,70.5-44.39S532,17,537,88.19s-56,55.95-25.5,81.9S556,278.66,525,283.5s-93.78-25.74-90.39-66.12-35-65-60.55-63.95S302,155.66,302,155.66Z"/><path class="cls-4" d="M533.05,204.08s15.32-12.44,13.26-14.72-15.94,10.94-15.94,10.94,14.34-15,12-17.5S525,196.43,525,196.43s13.5-15.62,10.34-18.7-21.13,24.54-21.13,24.54,3.81-11.4,1-12.07-10.69,24-10.69,24l-6.9,9.21a35.66,35.66,0,0,0-11.85-1.59c-3.57-21.31-5.7-41.43-3.08-48.71,4.25-11.82-3-20.68-6.44-24.08a9.93,9.93,0,0,0-8.93-4,113.13,113.13,0,0,1-18-.32,7.44,7.44,0,0,0-5.27-3.44l0,.25c.62-4.29,2.17-15.75,2.84-26.55,3-2.72,5.93-6.77,5.83-12h0A36.73,36.73,0,0,0,461,76.08a37.65,37.65,0,0,0-1.48-7.52,18.68,18.68,0,0,0,5.88-3.19,21,21,0,0,0,6.86-11.28,13.94,13.94,0,0,0,3.6-7.29c.83-5.75-2.73-10.62-4.58-12.7a19.85,19.85,0,0,0-36.83,6.8h0c-20.13-2.86-4.18,1-4.18,1l3.84,2,.1,0h0a36.87,36.87,0,0,0-42,17.36,17.87,17.87,0,0,0-10.94,5.55,20.72,20.72,0,0,0-4.7,11.75l.23.2c.38-3.84,1.56-8.31,4.66-11.79A17.14,17.14,0,0,1,391,61.75c-3,1.25-11.11,5.81-11.67,19.19L417.93,114l-11.45,14.32a30.55,30.55,0,0,0,12.3,1.39l1.2-.14a44.4,44.4,0,0,1,1.37,9.2,20,20,0,0,0-8.71,1.09,21.21,21.21,0,0,0-18.2,5.22c-2.93,2.66-9.49,5.49-18,8.28-.78,0-1.57.07-2.36.08a2.49,2.49,0,0,0-4.16-1.9,2.45,2.45,0,0,0-.82,1.66l-.76-.08a2.49,2.49,0,1,0-4.89-.92l-1-.25a2.5,2.5,0,0,0-4.08-2.53,2.55,2.55,0,0,0-.82,2c-.22,0-.42.08-.63.12a3.19,3.19,0,0,0-.31-.44,2.5,2.5,0,0,0-3.73,3.34,2.63,2.63,0,0,0,.74.56,4.43,4.43,0,0,0,0,.81,2.42,2.42,0,0,0-1,.86,2.51,2.51,0,0,0,.38,3.2c-24.26,5.93-52,10.85-64,12.35-21.35,2.69-28.18,15.86-31.71,26.73a22,22,0,0,1-13,13.88l.14.05-21.14,10.32s-24,3.37-23.86,5.9,11.24.84,11.24.84-28.41,11.72-26.14,14.92,18.92-6.35,18.92-6.35-17.37,10.85-15.5,13.22,18.11-8,18.11-8-14.51,10.2-12.78,12.33,15.79-9.47,15.79-9.47-7.92,12.82-5.92,13c4.07.34,19.45-23.29,30.08-26.41,2.31-.83,12.12-4.74,17.83-7,0,.07,0,.14,0,.21s12.68-2.92,16.77.23c2.95,2.27,22.14,11.54,41.83-3.81,12.75-9.93,35.85-28.38,53.85-39.23a39.92,39.92,0,0,0-6.93,22l-.94,71.39c-.93,5.2-8.56,7.61-8.56,7.61l-186.9,40.72a21.8,21.8,0,0,0-17.16,21.15l0,0,0,0v.24l.29.08,34.89,37.75-3.85,2.2A9.81,9.81,0,0,0,170,398.06l56.82,184.26a28.11,28.11,0,0,1-8,0l4.77,12.54,9.55-2.07,3.84,12.47-24.35,38.3,30.85-14.11s1.45-6.84,4.9-7.19S253.8,625,253.8,625l7.17-3.88s-.48-17-14.64-20.53c-.1-.77-1.06-5.35-2.1-10.2l8.29-1.79-1.31-14.41a91.66,91.66,0,0,1-8.54,4c-16.31-88.58-1.86-110.27-29-155.36l69.81,75.55c-4.53,4.95-7.86,6.63-7.86,6.63l11.53,6.86,5.56-6.77,9.49,9-.33.35-8.7,40.79,22.05-22s-.94-6.35,1.92-7.76a5.82,5.82,0,0,1,5.6.59l4.94-5.64s-5.8-14.32-18.94-13c-.92-1.13-5.61-6.42-9.25-10.51l6.49-7.9L296,478.4a87.9,87.9,0,0,1-4,8c-36.64-47.44-36.32-58.59-53.06-83.1C284.56,398.76,361,387.54,395,361.84c26.43-20,4.18-53.68-6.07-66.67h0c-.34-.44-1.49-8.65-1.49-8.65l64.5-71.29-7.8,60.14,2.08-5.45c-.11.41-.22.8-.33,1.19q-.86,2.1-1.75,4.26s-2.82,43.33,31.57,24.14c9.58-8.42,19-16.24,25.57-21.73,15.16-12.74,15-28.32,13.42-36a25.68,25.68,0,0,0-4.17-9.43c1.59-2.53,2.88-4.62,3.42-5.53,5.3-10.6,34.28-21.91,34.6-26.28C548.69,198.4,533.05,204.08,533.05,204.08ZM473.08,50a19.78,19.78,0,0,0-1.27-15c1.89,2.35,4.64,6.74,3.91,11.81a13.7,13.7,0,0,1-3.32,6.92A31,31,0,0,0,473.08,50Zm-.47,1.3a29.79,29.79,0,0,1-.63,2.93,23.09,23.09,0,0,1-2.36,2.24A20,20,0,0,0,472.61,51.25Zm-15,12.32s0,0,0,.08l2.32.87L464.39,63s-.27-.58-.82-1.54A19.87,19.87,0,0,0,469,57.14a23.35,23.35,0,0,0,2.86-2.58,20.48,20.48,0,0,1-6.62,10.61,18.46,18.46,0,0,1-5.78,3.14,34.81,34.81,0,0,0-1.86-4.74ZM209.32,366.69c-1.33-1.49-2.7-3-4.13-4.57A102.61,102.61,0,0,1,222,359.44ZM357.1,158.85a2.49,2.49,0,0,0-1-2.9,2.44,2.44,0,0,0-2-.33c0-.15,0-.3,0-.44a2.5,2.5,0,0,0,3-3.19c.17,0,.33-.07.51-.09a2.49,2.49,0,0,0,4.08,1.24,2.55,2.55,0,0,0,.55-.73l1.12.29a2.45,2.45,0,0,0,.63,1.53,2.5,2.5,0,0,0,3.53.2,2.45,2.45,0,0,0,.6-.84l.93.1a2.54,2.54,0,0,0,.61,1.37,3.65,3.65,0,0,0,.3.27C366,156.53,361.61,157.7,357.1,158.85Zm16.84-4.71a1.66,1.66,0,0,0,.06-.21l.66,0Zm47.16-11.56a28.06,28.06,0,0,0-7.36-2.54,19,19,0,0,1,7.57-.79l.05-.23A18.65,18.65,0,0,1,421.1,142.58Zm22.67.73s.09-.55.23-1.53a7,7,0,0,1,4.67,2.86C444.61,144.07,443.77,143.31,443.77,143.31Z"/><text class="cls-5" transform="translate(73.92 581.2) rotate(-9.01)">New list</text><text class="cls-6" transform="matrix(0.91, -0.14, 0.16, 0.99, 62.45, 589.32)">New list</text><path class="cls-7" d="M248,473l11,12.5s6.83-6,6-7.33-12.33-16.84-12.33-16.84Z"/><path class="cls-7" d="M180.66,551l3.81,18.11s9.89-2.07,9.81-3.81-2.71-23-2.71-23Z"/><path class="cls-3" d="M355.12,276.33l-23.78-17.66L133.58,283.24a21.82,21.82,0,0,0-19,19.51h0l0,0,0,.24.29.1,128.4,167.13,10.59-8.77c-50.51-77.88-26.26-68-78.87-137.44C230,315.5,295,357.53,337,346.81,377.38,336.51,355.12,276.33,355.12,276.33Z"/><path class="cls-7" d="M111.8,352.62a21.06,21.06,0,0,1-1.24,4.25,15.46,15.46,0,0,1-2.31,3.94,10.38,10.38,0,0,1-3.38,2.75,6.94,6.94,0,0,1-4.44.56c-2.53-.44-4.32-1.22-5.39-2.33a7.39,7.39,0,0,1-2-3.86A13.74,13.74,0,0,1,93,353.4c.24-1.55.44-3,.61-4.41a9.79,9.79,0,0,0-.11-3.52,2.53,2.53,0,0,0-2.3-1.8,5.34,5.34,0,0,0-4.06.91,13.86,13.86,0,0,0-3.52,3.56,31.52,31.52,0,0,0-3,5.27c-.9,2-1.7,4-2.38,6s-1.26,3.91-1.73,5.72-.8,3.3-1,4.45c-.26,1.51-.52,3.33-.78,5.44a25.07,25.07,0,0,0,0,6.18,13.31,13.31,0,0,0,1.74,5.32,6.33,6.33,0,0,0,4.62,2.87,16.51,16.51,0,0,0,4.32.19c1.43-.12,2.87-.29,4.32-.52s2.91-.4,4.38-.51a17.26,17.26,0,0,1,4.37.2,5.15,5.15,0,0,1,3.76,2.72,7,7,0,0,1,.84,4.77,10.92,10.92,0,0,1-3.29,6.06,23.74,23.74,0,0,1-6.27,4.31A27.85,27.85,0,0,1,86,409a21.17,21.17,0,0,1-7,.12,24.09,24.09,0,0,1-12.58-5.82,28,28,0,0,1-7.17-10.62,40.49,40.49,0,0,1-2.64-13.28,67.08,67.08,0,0,1,.93-13.93,64.21,64.21,0,0,1,2.61-9.8,77.18,77.18,0,0,1,4.5-10.41,65.73,65.73,0,0,1,6.22-9.78,42.55,42.55,0,0,1,7.79-7.89,30.15,30.15,0,0,1,9.15-4.86A21.15,21.15,0,0,1,98.09,322a14.73,14.73,0,0,1,8.41,4.2,20.15,20.15,0,0,1,4.56,7.71,30.53,30.53,0,0,1,1.47,9.4A52.44,52.44,0,0,1,111.8,352.62Z"/><path class="cls-7" d="M151.1,374.54a6.4,6.4,0,0,1-2.55-.72c-.68-.38-1.35-.78-2-1.19s-1.2-.78-1.81-1.15a4.76,4.76,0,0,0-2.11-.65,7.72,7.72,0,0,0-4.05.52,13.4,13.4,0,0,0-3.5,2.17,18.24,18.24,0,0,0-3,3.22,17.23,17.23,0,0,0-3.38,7.54c-.42,1.75-.8,3.63-1.16,5.65s-.82,4.06-1.15,5.93a33.43,33.43,0,0,1-1,4.4,34,34,0,0,1-1.25,4,19.23,19.23,0,0,1-2.12,4.14,10.66,10.66,0,0,1-3,3,5.58,5.58,0,0,1-4.14.73,5,5,0,0,1-3-1.64,8.75,8.75,0,0,1-1.77-3.26,19.47,19.47,0,0,1-.79-4.43,44.31,44.31,0,0,1-.07-5c.09-1.77.23-3.53.42-5.27s.41-3.4.65-5,.48-3,.75-4.27.46-2.34.6-3.13c.37-2.54.68-5.1,1-7.69s.62-5.15,1.07-7.67q.41-2.38,1.14-5.26a19.63,19.63,0,0,1,2.14-5.26,11.28,11.28,0,0,1,3.62-3.77,7.6,7.6,0,0,1,5.54-.81,4.57,4.57,0,0,1,2.93,1.74,9.34,9.34,0,0,1,1.6,3.29,17.74,17.74,0,0,1,.6,3.89,25.58,25.58,0,0,1-.08,3.67,27.49,27.49,0,0,1,7-5.85,14.05,14.05,0,0,1,8.93-1.39,19,19,0,0,1,5.06,1.39,15.17,15.17,0,0,1,4.31,2.75,11.49,11.49,0,0,1,2.84,4.12,10.27,10.27,0,0,1,.57,5.34,6,6,0,0,1-3,4.94A9.09,9.09,0,0,1,151.1,374.54Z"/><path class="cls-7" d="M201.89,405.27a13.1,13.1,0,0,1-3.58,6.79,27.23,27.23,0,0,1-6.94,5.25,32.82,32.82,0,0,1-8.29,3.12,19.53,19.53,0,0,1-7.65.39,18.85,18.85,0,0,1-9.72-4.66,26.28,26.28,0,0,1-6.23-8.61A34.62,34.62,0,0,1,156.59,397a37.74,37.74,0,0,1,.26-10.71,49.47,49.47,0,0,1,3.54-11.31A41.89,41.89,0,0,1,167,364.39a29.43,29.43,0,0,1,9.3-7.29,18.68,18.68,0,0,1,11.8-1.5,20.59,20.59,0,0,1,6.81,2.47,17.71,17.71,0,0,1,8.28,10.65,16.15,16.15,0,0,1,.28,7.29,21.79,21.79,0,0,1-3.82,9.14,25.52,25.52,0,0,1-7.08,6.67,29.67,29.67,0,0,1-9.14,3.81,27.2,27.2,0,0,1-9.9.55,6.22,6.22,0,0,0,1.75,5,9.42,9.42,0,0,0,9.19,1.94,39.25,39.25,0,0,0,4.42-1.73c1.46-.68,2.88-1.26,4.27-1.76a7.75,7.75,0,0,1,4-.41,6.12,6.12,0,0,1,3.64,2.08A4.57,4.57,0,0,1,201.89,405.27ZM189,375.71a6.65,6.65,0,0,0-.25-3,2.53,2.53,0,0,0-2.11-1.93,6.46,6.46,0,0,0-4.22.55,10.56,10.56,0,0,0-3.26,2.66,17.75,17.75,0,0,0-2.38,3.76,19.32,19.32,0,0,0-1.4,3.88c1,0,2.3-.12,3.77-.23a22.08,22.08,0,0,0,4.26-.76,11.55,11.55,0,0,0,3.65-1.76A4.78,4.78,0,0,0,189,375.71Z"/><path class="cls-7" d="M251.48,418.07q-.34,1.95-1.06,5.05a31.24,31.24,0,0,1-2,5.95,14.67,14.67,0,0,1-3.28,4.72,5.41,5.41,0,0,1-4.92,1.37,7.67,7.67,0,0,1-5.71-3.67,9.49,9.49,0,0,1-.92-6.85,26.94,26.94,0,0,1-8.67,3.39,24.54,24.54,0,0,1-9.23.17,12.58,12.58,0,0,1-5.68-2.56,18.57,18.57,0,0,1-4.29-4.76,19.66,19.66,0,0,1-2.53-6,14.67,14.67,0,0,1-.26-6.12,14.06,14.06,0,0,1,4.77-8.52,29.64,29.64,0,0,1,9-5.28,46.36,46.36,0,0,1,10.66-2.65,58.29,58.29,0,0,1,9.73-.53,6.78,6.78,0,0,1,.23-1,8.84,8.84,0,0,0,.22-1,8,8,0,0,0-.89-5.73,6.73,6.73,0,0,0-4.83-3,11,11,0,0,0-4.82.11,29,29,0,0,0-4,1.41c-1.29.55-2.56,1-3.82,1.45a8.32,8.32,0,0,1-4.05.24,6,6,0,0,1-3.8-2.23,5.06,5.06,0,0,1-1-4.18,11,11,0,0,1,3.24-6.12,19.21,19.21,0,0,1,6.16-4,29.09,29.09,0,0,1,7.47-1.92,24.4,24.4,0,0,1,7.07.06,25.17,25.17,0,0,1,5.71,1.73,21.56,21.56,0,0,1,5.14,3.13,21.81,21.81,0,0,1,4.08,4.39,17.25,17.25,0,0,1,2.55,5.51,47.64,47.64,0,0,1,1.65,9,79.07,79.07,0,0,1,.23,9.51c-.12,3.22-.38,6.4-.78,9.56S252,415.12,251.48,418.07Zm-16.7-6.49,1-7.41a1.36,1.36,0,0,1-.42-.13,2.13,2.13,0,0,0-.43-.13,11.91,11.91,0,0,0-3.63.09,18.43,18.43,0,0,0-4.4,1.24,16.07,16.07,0,0,0-3.78,2.18,4.75,4.75,0,0,0-1.9,2.9,2.09,2.09,0,0,0,.72,2.24,5.65,5.65,0,0,0,2.39,1,12.31,12.31,0,0,0,5.31-.36Q232.51,412.42,234.78,411.58Z"/><path class="cls-7" d="M279.81,442.75q-7.68-1.33-11.6-4.09a14,14,0,0,1-5.38-6.79,21.4,21.4,0,0,1-1-9.31q.46-5.26,1.59-11.65.88-5.09,2.11-10.16t2.89-10.81c-1-.17-1.8-.3-2.39-.36s-1.05-.13-1.41-.19a11.72,11.72,0,0,1-5.74-2.57,5.14,5.14,0,0,1-1.73-5.09,5,5,0,0,1,2.07-3.21,13.14,13.14,0,0,1,4.18-1.94,26.81,26.81,0,0,1,5.23-.87,34.3,34.3,0,0,1,5.18,0,57.22,57.22,0,0,1,1.6-6.63,31.81,31.81,0,0,1,2.77-6.59,16.1,16.1,0,0,1,4-4.82,6.48,6.48,0,0,1,5.35-1.29,5,5,0,0,1,2.9,1.56,8.33,8.33,0,0,1,1.77,3,13.35,13.35,0,0,1,.68,3.74,17.4,17.4,0,0,1-.23,3.86,31.9,31.9,0,0,1-1.1,4.38,56.14,56.14,0,0,1-2.17,5.41c1.25.07,2.09.13,2.53.17s.84.09,1.2.15a23.55,23.55,0,0,1,3.78,1,14.74,14.74,0,0,1,3.49,1.72,8.11,8.11,0,0,1,2.41,2.48,4.51,4.51,0,0,1,.56,3.17,4.74,4.74,0,0,1-2.17,3.18,14,14,0,0,1-4.4,1.91,26.14,26.14,0,0,1-5.38.79,42.44,42.44,0,0,1-5.22-.08c-.95,2.88-1.74,5.55-2.35,8s-1.25,4.93-1.91,7.41c-.36,1.21-.7,2.43-1,3.67s-.61,2.51-.84,3.81c-.16.94-.32,2-.47,3.32a12.71,12.71,0,0,0,.13,3.75,7.46,7.46,0,0,0,1.53,3.33,5.73,5.73,0,0,0,3.68,1.93,20.22,20.22,0,0,0,3.18.28,21.17,21.17,0,0,1,3.29.29,4.53,4.53,0,0,1,3.72,2.66,9.26,9.26,0,0,1,.37,5.19,6.13,6.13,0,0,1-2,3.71,10.37,10.37,0,0,1-3.88,2.11,19.47,19.47,0,0,1-4.87.76A22.83,22.83,0,0,1,279.81,442.75Z"/><path class="cls-7" d="M345.5,430.39a13.1,13.1,0,0,1-3.58,6.79,27.23,27.23,0,0,1-6.94,5.25,32.82,32.82,0,0,1-8.29,3.12,19.53,19.53,0,0,1-7.65.39,18.78,18.78,0,0,1-9.71-4.66,26.16,26.16,0,0,1-6.24-8.61,34.62,34.62,0,0,1-2.89-10.59,37.74,37.74,0,0,1,.26-10.71A49.47,49.47,0,0,1,304,400.06a42.18,42.18,0,0,1,6.58-10.55,29.43,29.43,0,0,1,9.3-7.29,18.68,18.68,0,0,1,11.8-1.5,20.59,20.59,0,0,1,6.81,2.47,17.71,17.71,0,0,1,8.28,10.65,16.15,16.15,0,0,1,.28,7.29,21.79,21.79,0,0,1-3.82,9.14,25.52,25.52,0,0,1-7.08,6.67,29.71,29.71,0,0,1-9.13,3.81,27.27,27.27,0,0,1-9.91.55,6.22,6.22,0,0,0,1.75,5,9.06,9.06,0,0,0,4.78,2.29,9.16,9.16,0,0,0,4.41-.35,39.25,39.25,0,0,0,4.42-1.73c1.46-.68,2.88-1.26,4.27-1.76a7.75,7.75,0,0,1,4-.41,6.12,6.12,0,0,1,3.64,2.08A4.57,4.57,0,0,1,345.5,430.39Zm-12.88-29.56a6.65,6.65,0,0,0-.25-3.05,2.55,2.55,0,0,0-2.11-1.93,6.46,6.46,0,0,0-4.22.55,10.41,10.41,0,0,0-3.25,2.66,17.64,17.64,0,0,0-2.39,3.76,19.32,19.32,0,0,0-1.4,3.88c1,0,2.3-.12,3.77-.23a22.08,22.08,0,0,0,4.26-.76,11.45,11.45,0,0,0,3.65-1.76A4.78,4.78,0,0,0,332.62,400.83Z"/><path class="cls-8" d="M360,268.33l-28-9.66L142.11,345.74a9.77,9.77,0,0,0-5.49,10.91l41.72,197.44a35.81,35.81,0,0,1,15.13-3.33c-11.14-107.51,12.43-120.27-25.14-183.09,0,0,142.28,6.51,195.65-26.67C399.37,319,360,268.33,360,268.33Z"/><path class="cls-3" d="M168.47,544.58s11.88,3.62,33.06-5.16v14.46l-29.45,3.62Z"/><path class="cls-9" d="M232.14,472.69s11.56-4.55,22.7-24.59l9,11.34L243,480.57Z"/><path class="cls-7" d="M227.88,178.92l-22.18,8.44s-24.2,1.17-24.29,3.71,11.11,1.85,11.11,1.85-29.35,9.1-27.39,12.48,19.42-4.6,19.42-4.6-18.28,9.23-16.63,11.76,18.76-6.31,18.76-6.31-15.38,8.85-13.85,11.12,16.58-8,16.58-8-9,12.05-7.07,12.4c4,.7,21.49-21.43,32.35-23.57,2.42-.63,12.9-3.75,18.74-5.49a7.52,7.52,0,0,0,5.11-5h0a6.9,6.9,0,0,0-3.42-8.07l-.61-.33A8,8,0,0,0,227.88,178.92Z"/><rect class="cls-10" x="61.52" y="92.17" width="63.77" height="99.87" transform="translate(-37.57 33.64) rotate(-17.05)"/><path class="cls-10" d="M494.08,232.32c-2.86-20.78-24-22.38-27-22.51-1.62-21.54-1.91-41.77,1.35-48.78,5.31-11.38-1.07-20.86-4.23-24.57a9.92,9.92,0,0,0-8.52-4.79c-20.7-1-23.3-3.87-23.3-3.87L410,131v-5.88s-14-9.71-26.87,0-85.88,16.72-107.38,17.46-29.5,13.24-34,23.74a22,22,0,0,1-14.18,12.65s8,3.1,5.5,14.1c0,0,12.89-1.76,16.68,1.75,2.73,2.53,21,13.5,42,0,13.6-8.74,38.28-25,57.19-34.18a40,40,0,0,0-8.9,21.24l-8,76.83,28,9.66,74-68.17-13.24,59.19,2.57-5.24-.44,1.16c-.69,1.33-1.4,2.7-2.13,4.08,0,0-6.74,42.89,29.25,26.9,10.31-7.52,20.43-14.44,27.44-19.32C493.7,255.62,495,240.09,494.08,232.32Z"/><g class="cls-11"><circle class="cls-12" cx="255.37" cy="76.45" r="1.68"/><circle class="cls-12" cx="268.15" cy="80.05" r="1.68"/><circle class="cls-12" cx="280.93" cy="83.65" r="1.68"/><circle class="cls-12" cx="293.71" cy="87.26" r="1.68"/><circle class="cls-12" cx="306.49" cy="90.86" r="1.68"/><circle class="cls-12" cx="319.26" cy="94.46" r="1.68"/><circle class="cls-12" cx="332.04" cy="98.06" r="1.68"/><circle class="cls-12" cx="344.82" cy="101.67" r="1.68"/><circle class="cls-12" cx="357.6" cy="105.27" r="1.68"/><circle class="cls-12" cx="370.38" cy="108.87" r="1.68"/><circle class="cls-12" cx="383.16" cy="112.47" r="1.68"/><circle class="cls-12" cx="395.94" cy="116.08" r="1.68"/><circle class="cls-12" cx="408.72" cy="119.68" r="1.68"/><circle class="cls-12" cx="421.5" cy="123.28" r="1.68"/><circle class="cls-12" cx="434.28" cy="126.88" r="1.68"/><circle class="cls-12" cx="447.05" cy="130.49" r="1.68"/><circle class="cls-12" cx="459.83" cy="134.09" r="1.68"/><circle class="cls-12" cx="472.61" cy="137.69" r="1.68"/><circle class="cls-12" cx="485.39" cy="141.29" r="1.68"/><circle class="cls-12" cx="498.17" cy="144.9" r="1.68"/><circle class="cls-12" cx="510.95" cy="148.5" r="1.68"/><circle class="cls-12" cx="523.73" cy="152.1" r="1.68"/><circle class="cls-12" cx="252.42" cy="86.92" r="1.68"/><circle class="cls-12" cx="265.2" cy="90.52" r="1.68"/><circle class="cls-12" cx="277.98" cy="94.12" r="1.68"/><circle class="cls-12" cx="290.76" cy="97.72" r="1.68"/><circle class="cls-12" cx="303.53" cy="101.33" r="1.68"/><circle class="cls-12" cx="316.31" cy="104.93" r="1.68"/><circle class="cls-12" cx="329.09" cy="108.53" r="1.68"/><circle class="cls-12" cx="341.87" cy="112.13" r="1.68"/><circle class="cls-12" cx="354.65" cy="115.74" r="1.68"/><circle class="cls-12" cx="367.43" cy="119.34" r="1.68"/><circle class="cls-12" cx="380.21" cy="122.94" r="1.68"/><circle class="cls-12" cx="392.99" cy="126.54" r="1.68"/><circle class="cls-12" cx="405.77" cy="130.15" r="1.68"/><circle class="cls-12" cx="418.55" cy="133.75" r="1.68"/><circle class="cls-12" cx="431.32" cy="137.35" r="1.68"/><circle class="cls-12" cx="444.1" cy="140.95" r="1.68"/><circle class="cls-12" cx="456.88" cy="144.56" r="1.68"/><circle class="cls-12" cx="469.66" cy="148.16" r="1.68"/><circle class="cls-12" cx="482.44" cy="151.76" r="1.68"/><circle class="cls-12" cx="495.22" cy="155.37" r="1.68"/><circle class="cls-12" cx="508" cy="158.97" r="1.68"/><circle class="cls-12" cx="520.78" cy="162.57" r="1.68"/><circle class="cls-12" cx="249.47" cy="97.38" r="1.68"/><circle class="cls-12" cx="262.25" cy="100.99" r="1.68"/><circle class="cls-12" cx="275.02" cy="104.59" r="1.68"/><circle class="cls-12" cx="287.8" cy="108.19" r="1.68"/><circle class="cls-12" cx="300.58" cy="111.79" r="1.68"/><circle class="cls-12" cx="313.36" cy="115.4" r="1.68"/><circle class="cls-12" cx="326.14" cy="119" r="1.68"/><circle class="cls-12" cx="338.92" cy="122.6" r="1.68"/><circle class="cls-12" cx="351.7" cy="126.2" r="1.68"/><circle class="cls-12" cx="364.48" cy="129.81" r="1.68"/><circle class="cls-12" cx="377.26" cy="133.41" r="1.68"/><circle class="cls-12" cx="390.04" cy="137.01" r="1.68"/><circle class="cls-12" cx="402.81" cy="140.62" r="1.68"/><circle class="cls-12" cx="415.59" cy="144.22" r="1.68"/><circle class="cls-12" cx="428.37" cy="147.82" r="1.68"/><circle class="cls-12" cx="441.15" cy="151.42" r="1.68"/><circle class="cls-12" cx="453.93" cy="155.03" r="1.68"/><circle class="cls-12" cx="466.71" cy="158.63" r="1.68"/><circle class="cls-12" cx="479.49" cy="162.23" r="1.68"/><circle class="cls-12" cx="492.27" cy="165.83" r="1.68"/><circle class="cls-12" cx="505.05" cy="169.44" r="1.68"/><circle class="cls-12" cx="517.83" cy="173.04" r="1.68"/><circle class="cls-12" cx="246.52" cy="107.85" r="1.68"/><circle class="cls-12" cx="259.29" cy="111.46" r="1.68"/><circle class="cls-12" cx="272.07" cy="115.06" r="1.68"/><circle class="cls-12" cx="284.85" cy="118.66" r="1.68"/><circle class="cls-12" cx="297.63" cy="122.26" r="1.68"/><circle class="cls-12" cx="310.41" cy="125.87" r="1.68"/><circle class="cls-12" cx="323.19" cy="129.47" r="1.68"/><circle class="cls-12" cx="335.97" cy="133.07" r="1.68"/><circle class="cls-12" cx="348.75" cy="136.67" r="1.68"/><circle class="cls-12" cx="361.53" cy="140.28" r="1.68"/><circle class="cls-12" cx="374.31" cy="143.88" r="1.68"/><circle class="cls-12" cx="387.08" cy="147.48" r="1.68"/><circle class="cls-12" cx="399.86" cy="151.08" r="1.68"/><circle class="cls-12" cx="412.64" cy="154.69" r="1.68"/><circle class="cls-12" cx="425.42" cy="158.29" r="1.68"/><circle class="cls-12" cx="438.2" cy="161.89" r="1.68"/><circle class="cls-12" cx="450.98" cy="165.49" r="1.68"/><circle class="cls-12" cx="463.76" cy="169.1" r="1.68"/><circle class="cls-12" cx="476.54" cy="172.7" r="1.68"/><circle class="cls-12" cx="489.32" cy="176.3" r="1.68"/><circle class="cls-12" cx="502.1" cy="179.9" r="1.68"/><circle class="cls-12" cx="514.87" cy="183.51" r="1.68"/><circle class="cls-12" cx="243.56" cy="118.32" r="1.68"/><circle class="cls-12" cx="256.34" cy="121.92" r="1.68"/><circle class="cls-12" cx="269.12" cy="125.53" r="1.68"/><circle class="cls-12" cx="281.9" cy="129.13" r="1.68"/><circle class="cls-12" cx="294.68" cy="132.73" r="1.68"/><circle class="cls-12" cx="307.46" cy="136.33" r="1.68"/><circle class="cls-12" cx="320.24" cy="139.94" r="1.68"/><circle class="cls-12" cx="333.02" cy="143.54" r="1.68"/><circle class="cls-12" cx="345.8" cy="147.14" r="1.68"/><circle class="cls-12" cx="358.58" cy="150.74" r="1.68"/><circle class="cls-12" cx="371.35" cy="154.35" r="1.68"/><circle class="cls-12" cx="384.13" cy="157.95" r="1.68"/><circle class="cls-12" cx="396.91" cy="161.55" r="1.68"/><circle class="cls-12" cx="409.69" cy="165.15" r="1.68"/><circle class="cls-12" cx="422.47" cy="168.76" r="1.68"/><circle class="cls-12" cx="435.25" cy="172.36" r="1.68"/><circle class="cls-12" cx="448.03" cy="175.96" r="1.68"/><circle class="cls-12" cx="460.81" cy="179.57" r="1.68"/><circle class="cls-12" cx="473.59" cy="183.17" r="1.68"/><circle class="cls-12" cx="486.37" cy="186.77" r="1.68"/><circle class="cls-12" cx="499.14" cy="190.37" r="1.68"/><circle class="cls-12" cx="511.92" cy="193.98" r="1.68"/><circle class="cls-12" cx="240.61" cy="128.79" r="1.68"/><circle class="cls-12" cx="253.39" cy="132.39" r="1.68"/><circle class="cls-12" cx="266.17" cy="135.99" r="1.68"/><circle class="cls-12" cx="278.95" cy="139.6" r="1.68"/><circle class="cls-12" cx="291.73" cy="143.2" r="1.68"/><circle class="cls-12" cx="304.51" cy="146.8" r="1.68"/><circle class="cls-12" cx="317.29" cy="150.4" r="1.68"/><circle class="cls-12" cx="330.07" cy="154.01" r="1.68"/><circle class="cls-12" cx="342.85" cy="157.61" r="1.68"/><circle class="cls-12" cx="355.62" cy="161.21" r="1.68"/><circle class="cls-12" cx="368.4" cy="164.82" r="1.68"/><circle class="cls-12" cx="381.18" cy="168.42" r="1.68"/><circle class="cls-12" cx="393.96" cy="172.02" r="1.68"/><circle class="cls-12" cx="406.74" cy="175.62" r="1.68"/><circle class="cls-12" cx="419.52" cy="179.23" r="1.68"/><circle class="cls-12" cx="432.3" cy="182.83" r="1.68"/><circle class="cls-12" cx="445.08" cy="186.43" r="1.68"/><circle class="cls-12" cx="457.86" cy="190.03" r="1.68"/><circle class="cls-12" cx="470.64" cy="193.64" r="1.68"/><circle class="cls-12" cx="483.41" cy="197.24" r="1.68"/><circle class="cls-12" cx="496.19" cy="200.84" r="1.68"/><circle class="cls-12" cx="508.97" cy="204.44" r="1.68"/><circle class="cls-12" cx="237.66" cy="139.26" r="1.68"/><circle class="cls-12" cx="250.44" cy="142.86" r="1.68"/><circle class="cls-12" cx="263.22" cy="146.46" r="1.68"/><circle class="cls-12" cx="276" cy="150.07" r="1.68"/><circle class="cls-12" cx="288.78" cy="153.67" r="1.68"/><circle class="cls-12" cx="301.56" cy="157.27" r="1.68"/><circle class="cls-12" cx="314.34" cy="160.87" r="1.68"/><circle class="cls-12" cx="327.12" cy="164.48" r="1.68"/><circle class="cls-12" cx="339.89" cy="168.08" r="1.68"/><circle class="cls-12" cx="352.67" cy="171.68" r="1.68"/><circle class="cls-12" cx="365.45" cy="175.28" r="1.68"/><circle class="cls-12" cx="378.23" cy="178.89" r="1.68"/><circle class="cls-12" cx="391.01" cy="182.49" r="1.68"/><circle class="cls-12" cx="403.79" cy="186.09" r="1.68"/><circle class="cls-12" cx="416.57" cy="189.69" r="1.68"/><circle class="cls-12" cx="429.35" cy="193.3" r="1.68"/><circle class="cls-12" cx="442.13" cy="196.9" r="1.68"/><circle class="cls-12" cx="454.91" cy="200.5" r="1.68"/><circle class="cls-12" cx="467.68" cy="204.1" r="1.68"/><circle class="cls-12" cx="480.46" cy="207.71" r="1.68"/><circle class="cls-12" cx="493.24" cy="211.31" r="1.68"/><circle class="cls-12" cx="506.02" cy="214.91" r="1.68"/><circle class="cls-12" cx="234.71" cy="149.73" r="1.68"/><circle class="cls-12" cx="247.49" cy="153.33" r="1.68"/><circle class="cls-12" cx="260.27" cy="156.93" r="1.68"/><circle class="cls-12" cx="273.05" cy="160.53" r="1.68"/><circle class="cls-12" cx="285.83" cy="164.14" r="1.68"/><circle class="cls-12" cx="298.61" cy="167.74" r="1.68"/><circle class="cls-12" cx="311.38" cy="171.34" r="1.68"/><circle class="cls-12" cx="324.16" cy="174.94" r="1.68"/><circle class="cls-12" cx="336.94" cy="178.55" r="1.68"/><circle class="cls-12" cx="349.72" cy="182.15" r="1.68"/><circle class="cls-12" cx="362.5" cy="185.75" r="1.68"/><circle class="cls-12" cx="375.28" cy="189.35" r="1.68"/><circle class="cls-12" cx="388.06" cy="192.96" r="1.68"/><circle class="cls-12" cx="400.84" cy="196.56" r="1.68"/><circle class="cls-12" cx="413.62" cy="200.16" r="1.68"/><circle class="cls-12" cx="426.4" cy="203.77" r="1.68"/><circle class="cls-12" cx="439.17" cy="207.37" r="1.68"/><circle class="cls-12" cx="451.95" cy="210.97" r="1.68"/><circle class="cls-12" cx="464.73" cy="214.57" r="1.68"/><circle class="cls-12" cx="477.51" cy="218.18" r="1.68"/><circle class="cls-12" cx="490.29" cy="221.78" r="1.68"/><circle class="cls-12" cx="503.07" cy="225.38" r="1.68"/><circle class="cls-12" cx="231.76" cy="160.19" r="1.68"/><circle class="cls-12" cx="244.54" cy="163.8" r="1.68"/><circle class="cls-12" cx="257.32" cy="167.4" r="1.68"/><circle class="cls-12" cx="270.1" cy="171" r="1.68"/><circle class="cls-12" cx="282.88" cy="174.61" r="1.68"/><circle class="cls-12" cx="295.65" cy="178.21" r="1.68"/><circle class="cls-12" cx="308.43" cy="181.81" r="1.68"/><circle class="cls-12" cx="321.21" cy="185.41" r="1.68"/><circle class="cls-12" cx="333.99" cy="189.02" r="1.68"/><circle class="cls-12" cx="346.77" cy="192.62" r="1.68"/><circle class="cls-12" cx="359.55" cy="196.22" r="1.68"/><circle class="cls-12" cx="372.33" cy="199.82" r="1.68"/><circle class="cls-12" cx="385.11" cy="203.43" r="1.68"/><circle class="cls-12" cx="397.89" cy="207.03" r="1.68"/><circle class="cls-12" cx="410.67" cy="210.63" r="1.68"/><circle class="cls-12" cx="423.44" cy="214.23" r="1.68"/><circle class="cls-12" cx="436.22" cy="217.84" r="1.68"/><circle class="cls-12" cx="449" cy="221.44" r="1.68"/><circle class="cls-12" cx="461.78" cy="225.04" r="1.68"/><circle class="cls-12" cx="474.56" cy="228.64" r="1.68"/><circle class="cls-12" cx="487.34" cy="232.25" r="1.68"/><circle class="cls-12" cx="500.12" cy="235.85" r="1.68"/><circle class="cls-12" cx="228.81" cy="170.66" r="1.68"/><circle class="cls-12" cx="241.59" cy="174.27" r="1.68"/><circle class="cls-12" cx="254.37" cy="177.87" r="1.68"/><circle class="cls-12" cx="267.15" cy="181.47" r="1.68"/><circle class="cls-12" cx="279.92" cy="185.07" r="1.68"/><circle class="cls-12" cx="292.7" cy="188.68" r="1.68"/><circle class="cls-12" cx="305.48" cy="192.28" r="1.68"/><circle class="cls-12" cx="318.26" cy="195.88" r="1.68"/><circle class="cls-12" cx="331.04" cy="199.48" r="1.68"/><circle class="cls-12" cx="343.82" cy="203.09" r="1.68"/><circle class="cls-12" cx="356.6" cy="206.69" r="1.68"/><circle class="cls-12" cx="369.38" cy="210.29" r="1.68"/><circle class="cls-12" cx="382.16" cy="213.89" r="1.68"/><circle class="cls-12" cx="394.94" cy="217.5" r="1.68"/><circle class="cls-12" cx="407.71" cy="221.1" r="1.68"/><circle class="cls-12" cx="420.49" cy="224.7" r="1.68"/><circle class="cls-12" cx="433.27" cy="228.3" r="1.68"/><circle class="cls-12" cx="446.05" cy="231.91" r="1.68"/><circle class="cls-12" cx="458.83" cy="235.51" r="1.68"/><circle class="cls-12" cx="471.61" cy="239.11" r="1.68"/><circle class="cls-12" cx="484.39" cy="242.72" r="1.68"/><circle class="cls-12" cx="497.17" cy="246.32" r="1.68"/><circle class="cls-12" cx="225.86" cy="181.13" r="1.68"/><circle class="cls-12" cx="238.64" cy="184.73" r="1.68"/><circle class="cls-12" cx="251.42" cy="188.34" r="1.68"/><circle class="cls-12" cx="264.19" cy="191.94" r="1.68"/><circle class="cls-12" cx="276.97" cy="195.54" r="1.68"/><circle class="cls-12" cx="289.75" cy="199.14" r="1.68"/><circle class="cls-12" cx="302.53" cy="202.75" r="1.68"/><circle class="cls-12" cx="315.31" cy="206.35" r="1.68"/><circle class="cls-12" cx="328.09" cy="209.95" r="1.68"/><circle class="cls-12" cx="340.87" cy="213.55" r="1.68"/><circle class="cls-12" cx="353.65" cy="217.16" r="1.68"/><circle class="cls-12" cx="366.43" cy="220.76" r="1.68"/><circle class="cls-12" cx="379.21" cy="224.36" r="1.68"/><circle class="cls-12" cx="391.98" cy="227.97" r="1.68"/><circle class="cls-12" cx="404.76" cy="231.57" r="1.68"/><circle class="cls-12" cx="417.54" cy="235.17" r="1.68"/><circle class="cls-12" cx="430.32" cy="238.77" r="1.68"/><circle class="cls-12" cx="443.1" cy="242.38" r="1.68"/><circle class="cls-12" cx="455.88" cy="245.98" r="1.68"/><circle class="cls-12" cx="468.66" cy="249.58" r="1.68"/><circle class="cls-12" cx="481.44" cy="253.18" r="1.68"/><circle class="cls-12" cx="494.22" cy="256.79" r="1.68"/><circle class="cls-12" cx="222.91" cy="191.6" r="1.68"/><circle class="cls-12" cx="235.68" cy="195.2" r="1.68"/><circle class="cls-12" cx="248.46" cy="198.81" r="1.68"/><circle class="cls-12" cx="261.24" cy="202.41" r="1.68"/><circle class="cls-12" cx="274.02" cy="206.01" r="1.68"/><circle class="cls-12" cx="286.8" cy="209.61" r="1.68"/><circle class="cls-12" cx="299.58" cy="213.22" r="1.68"/><circle class="cls-12" cx="312.36" cy="216.82" r="1.68"/><circle class="cls-12" cx="325.14" cy="220.42" r="1.68"/><circle class="cls-12" cx="337.92" cy="224.02" r="1.68"/><circle class="cls-12" cx="350.7" cy="227.63" r="1.68"/><circle class="cls-12" cx="363.48" cy="231.23" r="1.68"/><circle class="cls-12" cx="376.25" cy="234.83" r="1.68"/><circle class="cls-12" cx="389.03" cy="238.43" r="1.68"/><circle class="cls-12" cx="401.81" cy="242.04" r="1.68"/><circle class="cls-12" cx="414.59" cy="245.64" r="1.68"/><circle class="cls-12" cx="427.37" cy="249.24" r="1.68"/><circle class="cls-12" cx="440.15" cy="252.84" r="1.68"/><circle class="cls-12" cx="452.93" cy="256.45" r="1.68"/><circle class="cls-12" cx="465.71" cy="260.05" r="1.68"/><circle class="cls-12" cx="478.49" cy="263.65" r="1.68"/><circle class="cls-12" cx="491.27" cy="267.25" r="1.68"/><circle class="cls-12" cx="219.95" cy="202.07" r="1.68"/><circle class="cls-12" cx="232.73" cy="205.67" r="1.68"/><circle class="cls-12" cx="245.51" cy="209.27" r="1.68"/><circle class="cls-12" cx="258.29" cy="212.88" r="1.68"/><circle class="cls-12" cx="271.07" cy="216.48" r="1.68"/><circle class="cls-12" cx="283.85" cy="220.08" r="1.68"/><circle class="cls-12" cx="296.63" cy="223.68" r="1.68"/><circle class="cls-12" cx="309.41" cy="227.29" r="1.68"/><circle class="cls-12" cx="322.19" cy="230.89" r="1.68"/><circle class="cls-12" cx="334.97" cy="234.49" r="1.68"/><circle class="cls-12" cx="347.74" cy="238.09" r="1.68"/><circle class="cls-12" cx="360.52" cy="241.7" r="1.68"/><circle class="cls-12" cx="373.3" cy="245.3" r="1.68"/><circle class="cls-12" cx="386.08" cy="248.9" r="1.68"/><circle class="cls-12" cx="398.86" cy="252.5" r="1.68"/><circle class="cls-12" cx="411.64" cy="256.11" r="1.68"/><circle class="cls-12" cx="424.42" cy="259.71" r="1.68"/><circle class="cls-12" cx="437.2" cy="263.31" r="1.68"/><circle class="cls-12" cx="449.98" cy="266.92" r="1.68"/><circle class="cls-12" cx="462.76" cy="270.52" r="1.68"/><circle class="cls-12" cx="475.53" cy="274.12" r="1.68"/><circle class="cls-12" cx="488.31" cy="277.72" r="1.68"/><circle class="cls-12" cx="217" cy="212.54" r="1.68"/><circle class="cls-12" cx="229.78" cy="216.14" r="1.68"/><circle class="cls-12" cx="242.56" cy="219.74" r="1.68"/><circle class="cls-12" cx="255.34" cy="223.34" r="1.68"/><circle class="cls-12" cx="268.12" cy="226.95" r="1.68"/><circle class="cls-12" cx="280.9" cy="230.55" r="1.68"/><circle class="cls-12" cx="293.68" cy="234.15" r="1.68"/><circle class="cls-12" cx="306.46" cy="237.76" r="1.68"/><circle class="cls-12" cx="319.24" cy="241.36" r="1.68"/><circle class="cls-12" cx="332.01" cy="244.96" r="1.68"/><circle class="cls-12" cx="344.79" cy="248.56" r="1.68"/><circle class="cls-12" cx="357.57" cy="252.17" r="1.68"/><circle class="cls-12" cx="370.35" cy="255.77" r="1.68"/><circle class="cls-12" cx="383.13" cy="259.37" r="1.68"/><circle class="cls-12" cx="395.91" cy="262.97" r="1.68"/><circle class="cls-12" cx="408.69" cy="266.58" r="1.68"/><circle class="cls-12" cx="421.47" cy="270.18" r="1.68"/><circle class="cls-12" cx="434.25" cy="273.78" r="1.68"/><circle class="cls-12" cx="447.03" cy="277.38" r="1.68"/><circle class="cls-12" cx="459.8" cy="280.99" r="1.68"/><circle class="cls-12" cx="472.58" cy="284.59" r="1.68"/><circle class="cls-12" cx="485.36" cy="288.19" r="1.68"/><circle class="cls-12" cx="214.05" cy="223.01" r="1.68"/><circle class="cls-12" cx="226.83" cy="226.61" r="1.68"/><circle class="cls-12" cx="239.61" cy="230.21" r="1.68"/><circle class="cls-12" cx="252.39" cy="233.81" r="1.68"/><circle class="cls-12" cx="265.17" cy="237.42" r="1.68"/><circle class="cls-12" cx="277.95" cy="241.02" r="1.68"/><circle class="cls-12" cx="290.73" cy="244.62" r="1.68"/><circle class="cls-12" cx="303.51" cy="248.22" r="1.68"/><circle class="cls-12" cx="316.28" cy="251.83" r="1.68"/><circle class="cls-12" cx="329.06" cy="255.43" r="1.68"/><circle class="cls-12" cx="341.84" cy="259.03" r="1.68"/><circle class="cls-12" cx="354.62" cy="262.63" r="1.68"/><circle class="cls-12" cx="367.4" cy="266.24" r="1.68"/><circle class="cls-12" cx="380.18" cy="269.84" r="1.68"/><circle class="cls-12" cx="392.96" cy="273.44" r="1.68"/><circle class="cls-12" cx="405.74" cy="277.04" r="1.68"/><circle class="cls-12" cx="418.52" cy="280.65" r="1.68"/><circle class="cls-12" cx="431.3" cy="284.25" r="1.68"/><circle class="cls-12" cx="444.07" cy="287.85" r="1.68"/><circle class="cls-12" cx="456.85" cy="291.45" r="1.68"/><circle class="cls-12" cx="469.63" cy="295.06" r="1.68"/><circle class="cls-12" cx="482.41" cy="298.66" r="1.68"/><circle class="cls-12" cx="211.1" cy="233.47" r="1.68"/><circle class="cls-12" cx="223.88" cy="237.08" r="1.68"/><circle class="cls-12" cx="236.66" cy="240.68" r="1.68"/><circle class="cls-12" cx="249.44" cy="244.28" r="1.68"/><circle class="cls-12" cx="262.22" cy="247.88" r="1.68"/><circle class="cls-12" cx="275" cy="251.49" r="1.68"/><circle class="cls-12" cx="287.78" cy="255.09" r="1.68"/><circle class="cls-12" cx="300.55" cy="258.69" r="1.68"/><circle class="cls-12" cx="313.33" cy="262.29" r="1.68"/><circle class="cls-12" cx="326.11" cy="265.9" r="1.68"/><circle class="cls-12" cx="338.89" cy="269.5" r="1.68"/><circle class="cls-12" cx="351.67" cy="273.1" r="1.68"/><circle class="cls-12" cx="364.45" cy="276.7" r="1.68"/><circle class="cls-12" cx="377.23" cy="280.31" r="1.68"/><circle class="cls-12" cx="390.01" cy="283.91" r="1.68"/><circle class="cls-12" cx="402.79" cy="287.51" r="1.68"/><circle class="cls-12" cx="415.57" cy="291.12" r="1.68"/><circle class="cls-12" cx="428.34" cy="294.72" r="1.68"/><circle class="cls-12" cx="441.12" cy="298.32" r="1.68"/><circle class="cls-12" cx="453.9" cy="301.92" r="1.68"/><circle class="cls-12" cx="466.68" cy="305.53" r="1.68"/><circle class="cls-12" cx="479.46" cy="309.13" r="1.68"/><circle class="cls-12" cx="208.15" cy="243.94" r="1.68"/><circle class="cls-12" cx="220.93" cy="247.54" r="1.68"/><circle class="cls-12" cx="233.71" cy="251.15" r="1.68"/><circle class="cls-12" cx="246.49" cy="254.75" r="1.68"/><circle class="cls-12" cx="259.27" cy="258.35" r="1.68"/><circle class="cls-12" cx="272.04" cy="261.96" r="1.68"/><circle class="cls-12" cx="284.82" cy="265.56" r="1.68"/><circle class="cls-12" cx="297.6" cy="269.16" r="1.68"/><circle class="cls-12" cx="310.38" cy="272.76" r="1.68"/><circle class="cls-12" cx="323.16" cy="276.37" r="1.68"/><circle class="cls-12" cx="335.94" cy="279.97" r="1.68"/><circle class="cls-12" cx="348.72" cy="283.57" r="1.68"/><circle class="cls-12" cx="361.5" cy="287.17" r="1.68"/><circle class="cls-12" cx="374.28" cy="290.78" r="1.68"/><circle class="cls-12" cx="387.06" cy="294.38" r="1.68"/><circle class="cls-12" cx="399.83" cy="297.98" r="1.68"/><circle class="cls-12" cx="412.61" cy="301.58" r="1.68"/><circle class="cls-12" cx="425.39" cy="305.19" r="1.68"/><circle class="cls-12" cx="438.17" cy="308.79" r="1.68"/><circle class="cls-12" cx="450.95" cy="312.39" r="1.68"/><circle class="cls-12" cx="463.73" cy="315.99" r="1.68"/><circle class="cls-12" cx="476.51" cy="319.6" r="1.68"/><circle class="cls-12" cx="205.2" cy="254.41" r="1.68"/><circle class="cls-12" cx="217.98" cy="258.01" r="1.68"/><circle class="cls-12" cx="230.76" cy="261.62" r="1.68"/><circle class="cls-12" cx="243.54" cy="265.22" r="1.68"/><circle class="cls-12" cx="256.31" cy="268.82" r="1.68"/><circle class="cls-12" cx="269.09" cy="272.42" r="1.68"/><circle class="cls-12" cx="281.87" cy="276.03" r="1.68"/><circle class="cls-12" cx="294.65" cy="279.63" r="1.68"/><circle class="cls-12" cx="307.43" cy="283.23" r="1.68"/><circle class="cls-12" cx="320.21" cy="286.83" r="1.68"/><circle class="cls-12" cx="332.99" cy="290.44" r="1.68"/><circle class="cls-12" cx="345.77" cy="294.04" r="1.68"/><circle class="cls-12" cx="358.55" cy="297.64" r="1.68"/><circle class="cls-12" cx="371.33" cy="301.24" r="1.68"/><circle class="cls-12" cx="384.1" cy="304.85" r="1.68"/><circle class="cls-12" cx="396.88" cy="308.45" r="1.68"/><circle class="cls-12" cx="409.66" cy="312.05" r="1.68"/><circle class="cls-12" cx="422.44" cy="315.65" r="1.68"/><circle class="cls-12" cx="435.22" cy="319.26" r="1.68"/><circle class="cls-12" cx="448" cy="322.86" r="1.68"/><circle class="cls-12" cx="460.78" cy="326.46" r="1.68"/><circle class="cls-12" cx="473.56" cy="330.07" r="1.68"/></g><text class="cls-13" transform="translate(433.96 309.32) rotate(-45)">TO</text><path class="cls-7" d="M469.4,222.84l17.06-18.91s10.11-23.88,12.83-23-2.1,11.93-2.1,11.93,20.4-25.87,23.27-22.52-12,17.68-12,17.68S525,173.4,527,176.08s-13.55,16.33-13.55,16.33,15-11.91,16.86-9.44-14.55,13.46-14.55,13.46,16.1-4.24,15.74-2.11c-.72,4.32-30.6,13-36.84,23C493.13,219.53,486,228.82,482,234a8.12,8.12,0,0,1-7.15,3.14h0a8.12,8.12,0,0,1-7.3-6.7l-.13-.74A8.12,8.12,0,0,1,469.4,222.84Z"/><line class="cls-14" x1="64.5" y1="598" x2="531.17" y2="545.06"/><path class="cls-15" d="M323.39,259.65s7.83-1.71,9.22-6.8l30.67,12.46s.41,8.28.71,8.74-16.33,3.63-40.6-14.4"/><path class="cls-3" d="M396.28,151.7q-3,0-6.12-.12c-33.1-1.22-45.85-11.5-48.17-17.38-.78-2-.58-3.77.56-4.91,1.53-1.54,4.47-1.67,7.87-.36,15,5.8,32,1.62,42.9-4.22,10.09-5.39,17.15-3.49,17.22-3.47l-.13.48c-.07,0-7-1.86-16.85,3.43-11,5.89-28.19,10.1-43.32,4.25-3.21-1.24-5.95-1.15-7.33.24-1,1-1.16,2.59-.46,4.38,2.28,5.77,14.89,15.85,47.73,17.06,33.54,1.25,46.78-8.06,47.94-16.41a7.3,7.3,0,0,0-5.36-8.37l.12-.49a7.8,7.8,0,0,1,5.74,8.92c-.38,2.74-2.37,7.92-11.45,12C419.67,150,409.3,151.7,396.28,151.7Z"/><circle class="cls-15" cx="418.82" cy="62.41" r="36.88"/><path class="cls-7" d="M439.33,81.39A30.58,30.58,0,1,0,408.75,112c.4,0,.81,0,1.21,0,.76,5,1.2,11.93-1.21,15.85,0,0-17.07,17-3.66,17.45S432.4,127.8,432.4,127.8,440.84,93.75,439.33,81.39Z"/><circle class="cls-15" cx="405.09" cy="86.18" r="12.09"/><ellipse class="cls-15" cx="375.69" cy="86.18" rx="11.71" ry="12.09"/><path class="cls-15" d="M416.33,88.18l22.74-3.65c1.59-.25.92-2.67-.67-2.42l-22.74,3.64c-1.59.26-.92,2.68.67,2.43Z"/><circle class="cls-15" cx="451.71" cy="29.85" r="19.88"/><g class="cls-16"><circle class="cls-3" cx="451.71" cy="29.85" r="19.88"/></g><path class="cls-3" d="M416.43,99.73l5.66-5.66a.63.63,0,0,0-.89-.89l-5.66,5.66c-.57.58.32,1.47.89.89Z"/><path class="cls-3" d="M420.76,99.73l5.66-5.66c.58-.57-.31-1.46-.89-.89l-5.66,5.66c-.57.58.32,1.47.89.89Z"/><g class="cls-17"><polygon class="cls-12" points="377.49 72.45 368.08 96.83 369.89 98.9 387.4 79.93 377.49 72.45"/></g><g class="cls-18"><polygon class="cls-12" points="406.94 72.45 397 97.17 399.1 98.9 417.18 79.93 406.94 72.45"/></g><path class="cls-15" d="M439.51,60.54s-16.73-19-18.74-19-32.33,0-32.33,0S372,44.12,373.7,68.41c0,0,2.83,2.56,19.3,2.29a27.82,27.82,0,0,1,0-9.57l3.38,9.48c6.56-.24,15-.89,25.73-2.2,0,0,16.08,22,9.72,35,0,0,12.36-4.54,13.13-15Z"/><path class="cls-15" d="M371,64.39l-.25,0,.13,0-.13,0v-.23c-.07-3.62.42-12.65,6.35-18.19,3.8-3.55,9.14-5,15.91-4.47l0,.25c-6.68-.57-12,.91-15.72,4.4-5.85,5.48-6.34,14.42-6.27,18Z"/><path class="cls-15" d="M433,24.13l-.19-.05.09,0-.09,0s0-.07,0-.16c.35-2.56,1.71-8.84,6.88-12,3.32-2,7.6-2.46,12.76-1.24l0,.17c-5.1-1.2-9.34-.79-12.6,1.22-5.12,3.15-6.46,9.37-6.8,11.9A1.88,1.88,0,0,0,433,24.13Z"/><path class="cls-15" d="M469.26,21.2l.16-.1-.08,0,.08,0,.1.13c1.56,2.05,5.05,7.46,3.64,13.37-.9,3.78-3.63,7.11-8.14,9.9l-.09-.15c4.45-2.76,7.16-6.05,8.05-9.78,1.39-5.84-2.07-11.19-3.61-13.22A.65.65,0,0,1,469.26,21.2Z"/><path class="cls-15" d="M470.37,33.56l.28.07-.14,0,.14,0s0,.11,0,.25c-.37,3.82-2.05,13.25-9.57,18.28-4.82,3.22-11.18,4.08-18.92,2.56l.05-.26c7.65,1.5,13.94.66,18.69-2.51,7.43-5,9.09-14.32,9.46-18.1A1.69,1.69,0,0,1,470.37,33.56Z"/><circle class="cls-19" cx="356" cy="145.26" r="2.5"/><circle class="cls-19" cx="350.75" cy="142.32" r="2.5"/><circle class="cls-19" cx="345.81" cy="138.8" r="2.5"/><circle class="cls-19" cx="342.41" cy="134.39" r="2.5"/><circle class="cls-19" cx="342.91" cy="129.14" r="2.5"/><circle class="cls-19" cx="348.31" cy="128.14" r="2.5"/><circle class="cls-19" cx="354" cy="129.95" r="2.5"/><circle class="cls-19" cx="359.58" cy="131.29" r="2.5"/><circle class="cls-19" cx="361.58" cy="146.79" r="2.5"/><path class="cls-15" d="M184.47,569.08,156.75,605l32-11.25s2.07-6.67,5.53-6.71,5.22,3.21,5.22,3.21L207,587s1.07-17-12.72-21.77Z"/><path class="cls-20" d="M187.47,543.92s-7.14-93.59-9.14-125.25-20-52-20-52l5-7.34c126,2,161.17-14.66,161.17-14.66s40.15-13.67,39.49-32-6.66-38.25-6.66-38.25"/><path class="cls-15" d="M257.43,484.45l-12.37,39.82,24-19.95s-.36-6.41,2.62-7.55,5.52,1.09,5.52,1.09l5.43-5.17s-4.53-15-17.94-14.67Z"/><path class="cls-12" d="M257.1,502.89,251,501.14a.37.37,0,0,0-.2.72l6.08,1.75A.37.37,0,0,0,257.1,502.89Z"/><path class="cls-12" d="M260.34,491.41l0-.05L256,486.72c-.32-.35-.85.18-.53.54q2,2.13,4,4.27l-5.32,2.39a.18.18,0,0,0-.07.05l-.51-.55c-.33-.35-.86.18-.53.53l4,4.28-5.32,2.39c-.44.19-.06.84.37.64l5.78-2.59c.27-.12.23-.39.07-.56l0-.05-3.28-3.53,5.7-2.56C260.54,491.86,260.5,491.58,260.34,491.41Z"/><path class="cls-12" d="M174.27,591.43l-6.34-4.85a.47.47,0,0,0-.57.75l6.34,4.86C174.18,592.56,174.75,591.8,174.27,591.43Z"/><path class="cls-12" d="M183.36,579.45l0-.08q-1.46-3.71-2.93-7.43c-.22-.56-1.09-.18-.86.38l2.7,6.85-7.35.35-.11,0-.34-.87c-.23-.57-1.09-.19-.87.38l2.7,6.85-7.35.35c-.6,0-.45,1,.15.94l8-.38a.41.41,0,0,0,.33-.63s0-.05,0-.08c-.75-1.89-1.49-3.77-2.23-5.66l7.87-.37C183.39,580.06,183.47,579.72,183.36,579.45Z"/><text class="cls-21" transform="translate(109.46 172.88)">IT’S</text><text class="cls-22" transform="translate(100.19 167.3)">IT’S</text><text class="cls-23" transform="translate(371.9 406.35) rotate(-7.63)">A</text><circle class="cls-7" cx="344.75" cy="369.19" r="9.75"/><circle class="cls-7" cx="48.13" cy="415.37" r="3.13"/><circle class="cls-7" cx="77.5" cy="309" r="6.5"/><polygon class="cls-12" points="125.85 139.26 120.13 167.3 100.19 167.3 115 103.88 125.85 139.26"/><circle class="cls-3" cx="329" cy="51" r="6.5"/><circle class="cls-3" cx="535.89" cy="157.45" r="12.64"/><circle class="cls-3" cx="455.7" cy="129.95" r="12.64"/><circle class="cls-3" cx="302.92" cy="183.75" r="9.9"/><circle class="cls-4" cx="282.07" cy="177.41" r="6.91"/><circle class="cls-3" cx="278.58" cy="173.84" r="6.91"/></g></svg>